<svg id="Capa_1" data-name="Capa 1" xmlns="http://www.w3.org/2000/svg" viewBox="0 0 462.06 80.19"><defs><style>.cls-1{fill:#f1f1f1;}</style></defs><path class="cls-1" d="M145.16,437.83V402.25h13.75v3.56h-8.79v11.86h6.81v3.51h-6.81v16.65Z" transform="translate(-48.52 -380.62)"/><path class="cls-1" d="M164.44,437.83V402.25h13.8v3.69h-8.83v11.77h7.16v3.51h-7.16v13h8.91v3.56Z" transform="translate(-48.52 -380.62)"/><path class="cls-1" d="M184.43,437.83V402.25h7.73a13.53,13.53,0,0,1,6.26,1.21,6.91,6.91,0,0,1,3.3,3.62,16.17,16.17,0,0,1,1,6v13.09a18.19,18.19,0,0,1-1,6.37,7.57,7.57,0,0,1-3.21,3.93,11.47,11.47,0,0,1-5.95,1.34Zm5-3.56h2.82a5.66,5.66,0,0,0,3.86-1,4.82,4.82,0,0,0,1.38-3.08,39.8,39.8,0,0,0,.25-4.87V413.71a22.57,22.57,0,0,0-.36-4.48,3.74,3.74,0,0,0-1.53-2.5,6.87,6.87,0,0,0-3.74-.79h-2.68Z" transform="translate(-48.52 -380.62)"/><path class="cls-1" d="M209.69,437.83V402.25h13.79v3.69h-8.83v11.77h7.16v3.51h-7.16v13h8.92v3.56Z" transform="translate(-48.52 -380.62)"/><path class="cls-1" d="M229.67,437.83V402.25h7.16a15.76,15.76,0,0,1,5.89.94,6.6,6.6,0,0,1,3.45,3,11.53,11.53,0,0,1,1.12,5.47,15.1,15.1,0,0,1-.44,3.76,7.07,7.07,0,0,1-1.41,2.85A5.41,5.41,0,0,1,242.9,420l5,17.84h-4.79l-4.66-16.69h-3.86v16.69Zm5-20.25h1.89a9.33,9.33,0,0,0,3.42-.53,3.53,3.53,0,0,0,1.94-1.8,8.38,8.38,0,0,0,.61-3.56,7.07,7.07,0,0,0-1.14-4.5q-1.14-1.38-4.53-1.38h-2.19Z" transform="translate(-48.52 -380.62)"/><path class="cls-1" d="M254.84,437.83V402.25h4.88v35.58Z" transform="translate(-48.52 -380.62)"/><path class="cls-1" d="M276.5,438.22a9.53,9.53,0,0,1-5.87-1.58,8.1,8.1,0,0,1-2.89-4.26,20.23,20.23,0,0,1-.82-6V413.84a21.45,21.45,0,0,1,.82-6.28,7.59,7.59,0,0,1,2.89-4.15,10.11,10.11,0,0,1,5.87-1.47,9.86,9.86,0,0,1,5.29,1.23,6.88,6.88,0,0,1,2.81,3.51,15.74,15.74,0,0,1,.86,5.49V415h-4.7v-2.51a27.64,27.64,0,0,0-.2-3.49,3.83,3.83,0,0,0-1.07-2.35,4.21,4.21,0,0,0-2.95-.83,4.4,4.4,0,0,0-3.07.9,4.35,4.35,0,0,0-1.25,2.54,22.8,22.8,0,0,0-.29,3.85v14.1a16.42,16.42,0,0,0,.44,4.24,3.72,3.72,0,0,0,1.45,2.22,5,5,0,0,0,2.72.65,3.92,3.92,0,0,0,2.9-.9,4.26,4.26,0,0,0,1.1-2.48,26.51,26.51,0,0,0,.22-3.69v-2.63h4.7v2.63a18.76,18.76,0,0,1-.79,5.73,7.37,7.37,0,0,1-2.72,3.87A9.28,9.28,0,0,1,276.5,438.22Z" transform="translate(-48.52 -380.62)"/><path class="cls-1" d="M301.41,438.22a10.36,10.36,0,0,1-5.76-1.4,7.71,7.71,0,0,1-3.07-4,18.29,18.29,0,0,1-.93-6.13V413.19a17.21,17.21,0,0,1,1-6,7.49,7.49,0,0,1,3.07-3.87,10.72,10.72,0,0,1,5.74-1.34,10.42,10.42,0,0,1,5.71,1.36,7.73,7.73,0,0,1,3.05,3.87,17.07,17.07,0,0,1,.94,6v13.52a17.71,17.71,0,0,1-.94,6.07,8.11,8.11,0,0,1-3.05,4A10.08,10.08,0,0,1,301.41,438.22Zm0-3.91a4.68,4.68,0,0,0,3-.81,4,4,0,0,0,1.36-2.28,14.62,14.62,0,0,0,.36-3.45v-15.6a14.07,14.07,0,0,0-.36-3.4,3.77,3.77,0,0,0-1.36-2.2,4.89,4.89,0,0,0-3-.76,5,5,0,0,0-3,.76,3.81,3.81,0,0,0-1.39,2.2,14.63,14.63,0,0,0-.35,3.4v15.6a15.21,15.21,0,0,0,.35,3.45,4,4,0,0,0,1.39,2.28A4.78,4.78,0,0,0,301.41,434.31Z" transform="translate(-48.52 -380.62)"/><path class="cls-1" d="M330.26,437.83V402.25h5v32h9.09v3.56Z" transform="translate(-48.52 -380.62)"/><path class="cls-1" d="M358.64,438.22a10.35,10.35,0,0,1-5.75-1.4,7.73,7.73,0,0,1-3.08-4,18.56,18.56,0,0,1-.92-6.13V413.19a17.22,17.22,0,0,1,.94-6,7.51,7.51,0,0,1,3.08-3.87,10.7,10.7,0,0,1,5.73-1.34,10.4,10.4,0,0,1,5.71,1.36,7.67,7.67,0,0,1,3,3.87,17.05,17.05,0,0,1,1,6v13.52a17.7,17.7,0,0,1-1,6.07,8.05,8.05,0,0,1-3,4A10.05,10.05,0,0,1,358.64,438.22Zm0-3.91a4.72,4.72,0,0,0,3-.81,4.05,4.05,0,0,0,1.36-2.28,15.21,15.21,0,0,0,.35-3.45v-15.6a14.63,14.63,0,0,0-.35-3.4,3.87,3.87,0,0,0-1.36-2.2,4.92,4.92,0,0,0-3-.76,5,5,0,0,0-3,.76,3.75,3.75,0,0,0-1.38,2.2,14.11,14.11,0,0,0-.35,3.4v15.6a14.66,14.66,0,0,0,.35,3.45,3.92,3.92,0,0,0,1.38,2.28A4.8,4.8,0,0,0,358.64,434.31Z" transform="translate(-48.52 -380.62)"/><path class="cls-1" d="M375.24,437.83l.66-35.58h4.88l6.28,28.86,6.33-28.86h4.83l.66,35.58h-4l-.4-25.83-6,25.83h-2.82l-6-25.83-.39,25.83Z" transform="translate(-48.52 -380.62)"/><path class="cls-1" d="M406.43,437.83V402.25h8.17a15,15,0,0,1,4.2.52,7.52,7.52,0,0,1,3,1.63,6.58,6.58,0,0,1,1.76,2.79,12.48,12.48,0,0,1,.57,4,11.57,11.57,0,0,1-.55,3.79,5.47,5.47,0,0,1-1.67,2.53,5.76,5.76,0,0,1-2.88,1.19,7.64,7.64,0,0,1,3.47,1.64,7.07,7.07,0,0,1,2,3,13.43,13.43,0,0,1,.64,4.37,15.5,15.5,0,0,1-.53,4.17,8.29,8.29,0,0,1-1.65,3.21,7.44,7.44,0,0,1-2.85,2,10.52,10.52,0,0,1-4.11.73Zm5-20.74h2.94a7.42,7.42,0,0,0,3.29-.59,3.3,3.3,0,0,0,1.67-1.91,10.16,10.16,0,0,0,.49-3.42,6.48,6.48,0,0,0-.75-3.56,3.42,3.42,0,0,0-2.33-1.39,24.18,24.18,0,0,0-4.13-.28H411.4Zm0,17.18h3.33q3.34,0,4.46-1.56c.75-1,1.12-2.71,1.12-5a10.46,10.46,0,0,0-.59-3.75,4.49,4.49,0,0,0-1.89-2.29,6.84,6.84,0,0,0-3.49-.77H411.4Z" transform="translate(-48.52 -380.62)"/><path class="cls-1" d="M429.62,437.83l7.56-35.58H442l7.6,35.58h-4.7l-1.63-9H436l-1.71,9Zm7-12.52h5.93l-3-16Z" transform="translate(-48.52 -380.62)"/><path class="cls-1" d="M455.28,437.83V402.25h7.16a15.74,15.74,0,0,1,5.88.94,6.6,6.6,0,0,1,3.45,3,11.53,11.53,0,0,1,1.12,5.47,15.1,15.1,0,0,1-.44,3.76,7.18,7.18,0,0,1-1.4,2.85A5.49,5.49,0,0,1,468.5,420l5.05,17.84h-4.79l-4.65-16.69h-3.87v16.69Zm5-20.25h1.89a9.33,9.33,0,0,0,3.42-.53,3.53,3.53,0,0,0,1.94-1.8,8.38,8.38,0,0,0,.61-3.56,7.07,7.07,0,0,0-1.14-4.5c-.76-.92-2.27-1.38-4.52-1.38h-2.2Z" transform="translate(-48.52 -380.62)"/><path class="cls-1" d="M480.18,437.83V402.25h7.73a13.5,13.5,0,0,1,6.26,1.21,6.91,6.91,0,0,1,3.3,3.62,16,16,0,0,1,1,6v13.09a17.94,17.94,0,0,1-1,6.37,7.57,7.57,0,0,1-3.21,3.93,11.47,11.47,0,0,1-5.95,1.34Zm5-3.56H488a5.66,5.66,0,0,0,3.86-1,4.88,4.88,0,0,0,1.39-3.08,42.15,42.15,0,0,0,.24-4.87V413.71a23.46,23.46,0,0,0-.35-4.48,3.78,3.78,0,0,0-1.54-2.5,6.85,6.85,0,0,0-3.73-.79h-2.68Z" transform="translate(-48.52 -380.62)"/><path class="cls-1" d="M505.7,437.83V402.25h4.88v35.58Z" transform="translate(-48.52 -380.62)"/><polygon class="cls-1" points="80.87 30.19 71.03 20.96 33.36 61.15 9.2 38.51 0 48.32 34 80.19 40.74 72.99 80.87 30.19"/><path class="cls-1" d="M113.82,402l2.86-3.06L98.36,381.72a4.07,4.07,0,0,0-5.75.19l-6.42,6.85,14.54,13.62A9.26,9.26,0,0,0,113.82,402Z" transform="translate(-48.52 -380.62)"/><path class="cls-1" d="M80.15,419.61a8.57,8.57,0,0,0,12.11-.39l3.34-3.56-15-14.1a4.65,4.65,0,0,0-6.57.21l-6,6.42Z" transform="translate(-48.52 -380.62)"/><ellipse class="cls-1" cx="13.96" cy="14.42" rx="7.88" ry="7.41"/></svg>