<svg id="Capa_1" data-name="Capa 1" xmlns="http://www.w3.org/2000/svg" viewBox="0 0 325.86 57.07"><defs><style>.cls-1{fill:#010101;}</style></defs><path class="cls-1" d="M165.52,161.48V136.16h9.79v2.53h-6.25v8.44h4.84v2.5h-4.84v11.85Z" transform="translate(-99.71 -118.44)"/><path class="cls-1" d="M179.25,161.48V136.16h9.81v2.63h-6.28v8.37h5.09v2.51h-5.09V159h6.34v2.53Z" transform="translate(-99.71 -118.44)"/><path class="cls-1" d="M193.47,161.48V136.16H199a9.74,9.74,0,0,1,4.46.86,4.92,4.92,0,0,1,2.34,2.58,11.34,11.34,0,0,1,.7,4.28v9.32a12.76,12.76,0,0,1-.7,4.53,5.44,5.44,0,0,1-2.28,2.8,8.22,8.22,0,0,1-4.24.95ZM197,159h2a4,4,0,0,0,2.75-.75,3.4,3.4,0,0,0,1-2.19,30.88,30.88,0,0,0,.17-3.47v-8.22a16.19,16.19,0,0,0-.25-3.19,2.68,2.68,0,0,0-1.09-1.78,4.88,4.88,0,0,0-2.66-.56H197Z" transform="translate(-99.71 -118.44)"/><path class="cls-1" d="M211.44,161.48V136.16h9.82v2.63H215v8.37h5.09v2.51H215V159h6.34v2.53Z" transform="translate(-99.71 -118.44)"/><path class="cls-1" d="M225.67,161.48V136.16h5.09a11.18,11.18,0,0,1,4.19.67,4.71,4.71,0,0,1,2.46,2.16,8.25,8.25,0,0,1,.79,3.89,10.52,10.52,0,0,1-.31,2.67,5.2,5.2,0,0,1-1,2,3.91,3.91,0,0,1-1.81,1.2l3.59,12.69h-3.41L232,149.6H229.2v11.88Zm3.53-14.41h1.34a6.66,6.66,0,0,0,2.44-.37,2.5,2.5,0,0,0,1.38-1.29,5.92,5.92,0,0,0,.44-2.53,5,5,0,0,0-.82-3.2c-.54-.66-1.61-1-3.22-1H229.2Z" transform="translate(-99.71 -118.44)"/><path class="cls-1" d="M243.58,161.48V136.16h3.47v25.32Z" transform="translate(-99.71 -118.44)"/><path class="cls-1" d="M259,161.76a6.78,6.78,0,0,1-4.17-1.12,5.82,5.82,0,0,1-2.07-3,14.77,14.77,0,0,1-.57-4.25v-8.94a15.66,15.66,0,0,1,.57-4.47,5.44,5.44,0,0,1,2.07-2.95,7.14,7.14,0,0,1,4.17-1.05,7,7,0,0,1,3.77.88,4.9,4.9,0,0,1,2,2.5,11.26,11.26,0,0,1,.61,3.91v2H262v-1.79a18.37,18.37,0,0,0-.14-2.48,2.69,2.69,0,0,0-.76-1.67,3,3,0,0,0-2.1-.6,3.18,3.18,0,0,0-2.19.64,3.23,3.23,0,0,0-.89,1.82,16.75,16.75,0,0,0-.2,2.73v10a11.47,11.47,0,0,0,.31,3,2.64,2.64,0,0,0,1,1.58A3.55,3.55,0,0,0,259,159a2.76,2.76,0,0,0,2.06-.64,3.09,3.09,0,0,0,.79-1.77A20,20,0,0,0,262,154v-1.88h3.35V154a13.31,13.31,0,0,1-.57,4.08,5.25,5.25,0,0,1-1.93,2.75A6.64,6.64,0,0,1,259,161.76Z" transform="translate(-99.71 -118.44)"/><path class="cls-1" d="M276.72,161.76a7.38,7.38,0,0,1-4.1-1,5.47,5.47,0,0,1-2.19-2.86,13,13,0,0,1-.65-4.36v-9.6a12.19,12.19,0,0,1,.67-4.29,5.29,5.29,0,0,1,2.19-2.75,7.56,7.56,0,0,1,4.08-1,7.48,7.48,0,0,1,4.06,1,5.48,5.48,0,0,1,2.17,2.75,12.14,12.14,0,0,1,.67,4.28v9.63a12.57,12.57,0,0,1-.67,4.32,5.72,5.72,0,0,1-2.17,2.86A7.22,7.22,0,0,1,276.72,161.76Zm0-2.78a3.31,3.31,0,0,0,2.12-.58,2.84,2.84,0,0,0,1-1.62,10.53,10.53,0,0,0,.25-2.46V143.23a10.14,10.14,0,0,0-.25-2.43,2.71,2.71,0,0,0-1-1.56,3.51,3.51,0,0,0-2.12-.55,3.61,3.61,0,0,0-2.15.55,2.67,2.67,0,0,0-1,1.56,10.14,10.14,0,0,0-.25,2.43v11.09a10.53,10.53,0,0,0,.25,2.46,2.8,2.8,0,0,0,1,1.62A3.4,3.4,0,0,0,276.72,159Z" transform="translate(-99.71 -118.44)"/><path class="cls-1" d="M297.25,161.48V136.16h3.54V159h6.47v2.53Z" transform="translate(-99.71 -118.44)"/><path class="cls-1" d="M317.45,161.76a7.38,7.38,0,0,1-4.1-1,5.47,5.47,0,0,1-2.19-2.86,13.3,13.3,0,0,1-.65-4.36v-9.6a12.19,12.19,0,0,1,.67-4.29,5.34,5.34,0,0,1,2.19-2.75,7.56,7.56,0,0,1,4.08-1,7.48,7.48,0,0,1,4.06,1,5.48,5.48,0,0,1,2.17,2.75,12.14,12.14,0,0,1,.67,4.28v9.63a12.57,12.57,0,0,1-.67,4.32,5.72,5.72,0,0,1-2.17,2.86A7.22,7.22,0,0,1,317.45,161.76Zm0-2.78a3.31,3.31,0,0,0,2.12-.58,2.84,2.84,0,0,0,1-1.62,10.53,10.53,0,0,0,.25-2.46V143.23a10.14,10.14,0,0,0-.25-2.43,2.71,2.71,0,0,0-1-1.56,3.51,3.51,0,0,0-2.12-.55,3.61,3.61,0,0,0-2.15.55,2.67,2.67,0,0,0-1,1.56,10.14,10.14,0,0,0-.25,2.43v11.09a10.53,10.53,0,0,0,.25,2.46,2.8,2.8,0,0,0,1,1.62A3.4,3.4,0,0,0,317.45,159Z" transform="translate(-99.71 -118.44)"/><path class="cls-1" d="M329.26,161.48l.47-25.32h3.47l4.47,20.54,4.5-20.54h3.44l.47,25.32h-2.84L343,143.1l-4.28,18.38h-2l-4.25-18.38-.28,18.38Z" transform="translate(-99.71 -118.44)"/><path class="cls-1" d="M351.46,161.48V136.16h5.81a10.6,10.6,0,0,1,3,.38,5.32,5.32,0,0,1,2.11,1.15,4.84,4.84,0,0,1,1.25,2,8.86,8.86,0,0,1,.4,2.83,8.36,8.36,0,0,1-.39,2.7,3.93,3.93,0,0,1-1.19,1.8,4,4,0,0,1-2,.84,5.53,5.53,0,0,1,2.47,1.17,5.17,5.17,0,0,1,1.39,2.13,9.54,9.54,0,0,1,.45,3.11,11.07,11.07,0,0,1-.38,3,5.87,5.87,0,0,1-1.17,2.28,5.33,5.33,0,0,1-2,1.46,7.62,7.62,0,0,1-2.92.51ZM355,146.73h2.09a5.24,5.24,0,0,0,2.35-.43,2.36,2.36,0,0,0,1.19-1.36,7.39,7.39,0,0,0,.34-2.43,4.71,4.71,0,0,0-.53-2.54,2.45,2.45,0,0,0-1.66-1,16.75,16.75,0,0,0-2.94-.2H355ZM355,159h2.37q2.38,0,3.18-1.11a6.26,6.26,0,0,0,.79-3.58,7.41,7.41,0,0,0-.42-2.67,3.2,3.2,0,0,0-1.34-1.63,5,5,0,0,0-2.49-.54H355Z" transform="translate(-99.71 -118.44)"/><path class="cls-1" d="M368,161.48l5.38-25.32h3.41l5.4,25.32h-3.34l-1.16-6.38h-5.16l-1.22,6.38Zm5-8.91h4.22l-2.12-11.41Z" transform="translate(-99.71 -118.44)"/><path class="cls-1" d="M386.22,161.48V136.16h5.09a11.18,11.18,0,0,1,4.19.67A4.71,4.71,0,0,1,398,139a8.25,8.25,0,0,1,.79,3.89,10.52,10.52,0,0,1-.31,2.67,5.2,5.2,0,0,1-1,2,3.91,3.91,0,0,1-1.81,1.2l3.59,12.69h-3.41L392.5,149.6h-2.75v11.88Zm3.53-14.41h1.34a6.66,6.66,0,0,0,2.44-.37,2.53,2.53,0,0,0,1.38-1.29,5.94,5.94,0,0,0,.43-2.53,5,5,0,0,0-.81-3.2c-.54-.66-1.61-1-3.22-1h-1.56Z" transform="translate(-99.71 -118.44)"/><path class="cls-1" d="M403.94,161.48V136.16h5.5a9.74,9.74,0,0,1,4.46.86,4.92,4.92,0,0,1,2.34,2.58,11.34,11.34,0,0,1,.7,4.28v9.32a12.76,12.76,0,0,1-.7,4.53,5.44,5.44,0,0,1-2.28,2.8,8.22,8.22,0,0,1-4.24.95Zm3.53-2.53h2a4,4,0,0,0,2.75-.75,3.4,3.4,0,0,0,1-2.19,30.88,30.88,0,0,0,.17-3.47v-8.22a16.19,16.19,0,0,0-.25-3.19,2.68,2.68,0,0,0-1.09-1.78,4.88,4.88,0,0,0-2.66-.56h-1.91Z" transform="translate(-99.71 -118.44)"/><path class="cls-1" d="M422.1,161.48V136.16h3.47v25.32Z" transform="translate(-99.71 -118.44)"/><polygon class="cls-1" points="57.55 21.48 50.55 14.92 23.74 43.52 6.55 27.4 0 34.39 24.19 57.07 29 51.95 57.55 21.48"/><path class="cls-1" d="M146.18,133.62l2-2.17-13-12.23a2.9,2.9,0,0,0-4.09.13l-4.57,4.88,10.34,9.69A6.59,6.59,0,0,0,146.18,133.62Z" transform="translate(-99.71 -118.44)"/><path class="cls-1" d="M122.22,146.19a6.1,6.1,0,0,0,8.62-.28l2.37-2.54-10.7-10a3.3,3.3,0,0,0-4.67.15l-4.29,4.57Z" transform="translate(-99.71 -118.44)"/><ellipse class="cls-1" cx="9.93" cy="10.26" rx="5.61" ry="5.28"/></svg>